<svg width="99" height="39" viewBox="0 0 99 39" fill="none" xmlns="http://www.w3.org/2000/svg">
<path d="M0 19.8192L7.063 0.716672H10.9287L17.8868 19.8192H14.2439L12.3439 14.4247H5.62157L3.7084 19.8192H0ZM6.51264 11.7925H11.4397C9.86724 6.78015 9.05917 4.19145 9.01549 4.0264L6.51264 11.7925Z" fill="white"/>
<path d="M24.6484 20.0147C23.6613 20.0147 22.8401 19.9018 22.1849 19.6759C21.5385 19.4414 21.0274 19.0722 20.6518 18.5683C20.2761 18.0645 20.014 17.4651 19.8655 16.7701C19.717 16.0752 19.6428 15.2108 19.6428 14.1771V0.221517L23.076 0V14.1119C23.076 15.3976 23.2289 16.2706 23.5346 16.731C23.8404 17.1828 24.4344 17.4086 25.3167 17.4086C25.7535 17.4086 26.3083 17.3608 26.9809 17.2653L27.0727 19.702C27.0639 19.702 26.9547 19.7237 26.7451 19.7671C26.5441 19.8106 26.3476 19.8453 26.1554 19.8714C25.9719 19.9061 25.7361 19.9365 25.4478 19.9626C25.1595 19.9973 24.893 20.0147 24.6484 20.0147Z" fill="white"/>
<path d="M32.5763 20.0929C31.2397 20.0929 30.1565 19.728 29.3265 18.9983C28.5054 18.2599 28.0948 17.2001 28.0948 15.8189C28.0948 14.3334 28.584 13.2345 29.5624 12.5222C30.5408 11.8012 32.0172 11.3451 33.9915 11.154C34.2623 11.1193 34.555 11.0845 34.8695 11.0498C35.184 11.015 35.5378 10.9803 35.9309 10.9455C36.324 10.9108 36.6341 10.8804 36.8613 10.8543V10.0986C36.8613 9.22987 36.6604 8.60007 36.2585 8.20916C35.8567 7.80956 35.2451 7.60976 34.424 7.60976C33.2533 7.60976 31.8075 7.93552 30.0866 8.58704C30.0778 8.56098 29.9337 8.16572 29.6541 7.40127C29.3746 6.63682 29.2304 6.24591 29.2217 6.22853C30.9165 5.50752 32.751 5.14701 34.7253 5.14701C36.6647 5.14701 38.0756 5.56833 38.9579 6.41096C39.8402 7.24491 40.2814 8.60007 40.2814 10.4764V19.8192H37.7392C37.7305 19.7845 37.6344 19.4935 37.451 18.9462C37.2675 18.3989 37.1758 18.1079 37.1758 18.0732C36.4594 18.7681 35.7562 19.2807 35.066 19.6108C34.3846 19.9322 33.5547 20.0929 32.5763 20.0929ZM33.5067 17.6692C34.3017 17.6692 34.9918 17.4825 35.5771 17.1089C36.1711 16.7267 36.5948 16.2663 36.8482 15.7277V12.9653C36.822 12.9653 36.5905 12.9826 36.1537 13.0174C35.7256 13.0521 35.4941 13.0695 35.4592 13.0695C34.0702 13.1911 33.0524 13.4517 32.406 13.8513C31.7595 14.2509 31.4363 14.8938 31.4363 15.7798C31.4363 16.3879 31.6154 16.857 31.9735 17.1871C32.3317 17.5085 32.8428 17.6692 33.5067 17.6692Z" fill="white"/>
<path d="M49.1003 20.0929C47.2221 20.0929 45.7457 19.4066 44.6712 18.0341C43.5967 16.6615 43.0594 14.8286 43.0594 12.5352C43.0594 10.3114 43.5923 8.52623 44.6581 7.17975C45.7326 5.82459 47.209 5.14701 49.0872 5.14701C51.1314 5.14701 52.5772 5.86803 53.4246 7.31006C53.3373 6.45874 53.2936 5.63782 53.2936 4.84731V0.221517L56.7268 0V19.8192H53.7522L53.3722 17.8647C53.2237 18.0992 53.0839 18.3034 52.9529 18.4771C52.8306 18.6422 52.6471 18.8376 52.4025 19.0635C52.1579 19.2807 51.8915 19.4587 51.6032 19.5977C51.3236 19.728 50.9655 19.841 50.5287 19.9365C50.1006 20.0408 49.6245 20.0929 49.1003 20.0929ZM49.9128 17.4998C52.2191 17.4998 53.3897 15.9405 53.4246 12.8219C53.4246 11.0585 53.1276 9.7728 52.5336 8.96492C51.9395 8.15703 51.0528 7.75309 49.8735 7.75309C48.8426 7.75309 48.0171 8.16572 47.3968 8.99098C46.7853 9.80755 46.4795 11.015 46.4795 12.6134C46.4795 14.2031 46.7853 15.415 47.3968 16.2489C48.0171 17.0829 48.8557 17.4998 49.9128 17.4998Z" fill="white"/>
<path d="M65.454 20.0929C63.5758 20.0929 62.0994 19.4066 61.0249 18.0341C59.9504 16.6615 59.4131 14.8286 59.4131 12.5352C59.4131 10.3114 59.946 8.52623 61.0118 7.17975C62.0863 5.82459 63.5627 5.14701 65.4409 5.14701C67.4851 5.14701 68.9309 5.86803 69.7783 7.31006C69.6909 6.45874 69.6472 5.63782 69.6472 4.84731V0.221517L73.0805 0V19.8192H70.1059L69.7259 17.8647C69.5774 18.0992 69.4376 18.3034 69.3065 18.4771C69.1842 18.6422 69.0008 18.8376 68.7562 19.0635C68.5116 19.2807 68.2451 19.4587 67.9568 19.5977C67.6773 19.728 67.3191 19.841 66.8823 19.9365C66.4543 20.0408 65.9782 20.0929 65.454 20.0929ZM66.2664 17.4998C68.5727 17.4998 69.7433 15.9405 69.7783 12.8219C69.7783 11.0585 69.4813 9.7728 68.8872 8.96492C68.2932 8.15703 67.4065 7.75309 66.2271 7.75309C65.1963 7.75309 64.3707 8.16572 63.7505 8.99098C63.139 9.80755 62.8332 11.015 62.8332 12.6134C62.8332 14.2031 63.139 15.415 63.7505 16.2489C64.3707 17.0829 65.2094 17.4998 66.2664 17.4998Z" fill="white"/>
<path d="M76.684 19.8192V5.49883H80.1173V19.8192H76.684ZM76.684 3.41397V0.495155H80.1304V3.41397H76.684Z" fill="white"/>
<path d="M83.7077 19.8192V5.49883H86.4727L86.8527 7.31006C88.3203 5.86803 89.9496 5.14701 91.7404 5.14701C93.4177 5.14701 94.6713 5.62914 95.5013 6.59339C96.3399 7.54895 96.7592 8.93886 96.7592 10.7631V19.8192H93.3129V11.1801C93.3042 10.0247 93.1163 9.16037 92.7494 8.58704C92.3825 8.0137 91.723 7.72703 90.7707 7.72703C90.0282 7.72703 89.3468 7.91814 88.7265 8.30037C88.115 8.67391 87.6695 9.14734 87.3899 9.72068C87.224 10.3983 87.141 11.4407 87.141 12.848V19.8192H83.7077Z" fill="white"/>
<path d="M0.0395508 35.0408C23.3255 18.901 50.8178 36.047 75.8279 34.6096C84.1268 34.0757 92.6719 32.0018 99.0002 25.6567C96.4403 29.5632 92.9499 32.6433 88.9014 34.5685C59.9692 48.9424 29.1612 22.6588 0.077444 35.0408H0.0395508Z" fill="white"/>
</svg>
