<svg width="119" height="56" viewBox="0 0 119 56" fill="none" xmlns="http://www.w3.org/2000/svg">
<path d="M0.953125 33L9.375 10.0938H13.9844L22.2812 33H17.9375L15.6719 26.5312H7.65625L5.375 33H0.953125ZM8.71875 23.375H14.5938C12.7188 17.3646 11.7552 14.2604 11.7031 14.0625L8.71875 23.375ZM30.3438 33.2344C29.1667 33.2344 28.1875 33.099 27.4062 32.8281C26.6354 32.5469 26.026 32.1042 25.5781 31.5C25.1302 30.8958 24.8177 30.1771 24.6406 29.3438C24.4635 28.5104 24.375 27.474 24.375 26.2344V9.5L28.4688 9.23438V26.1562C28.4688 27.6979 28.651 28.7448 29.0156 29.2969C29.3802 29.8385 30.0885 30.1094 31.1406 30.1094C31.6615 30.1094 32.3229 30.0521 33.125 29.9375L33.2344 32.8594C33.224 32.8594 33.0938 32.8854 32.8438 32.9375C32.6042 32.9896 32.3698 33.0312 32.1406 33.0625C31.9219 33.1042 31.6406 33.1406 31.2969 33.1719C30.9531 33.2135 30.6354 33.2344 30.3438 33.2344ZM39.7969 33.3281C38.2031 33.3281 36.9115 32.8906 35.9219 32.0156C34.9427 31.1302 34.4531 29.8594 34.4531 28.2031C34.4531 26.4219 35.0365 25.1042 36.2031 24.25C37.3698 23.3854 39.1302 22.8385 41.4844 22.6094C41.8073 22.5677 42.1562 22.526 42.5312 22.4844C42.9062 22.4427 43.3281 22.401 43.7969 22.3594C44.2656 22.3177 44.6354 22.2812 44.9062 22.25V21.3438C44.9062 20.3021 44.6667 19.5469 44.1875 19.0781C43.7083 18.599 42.9792 18.3594 42 18.3594C40.6042 18.3594 38.8802 18.75 36.8281 19.5312C36.8177 19.5 36.6458 19.026 36.3125 18.1094C35.9792 17.1927 35.8073 16.724 35.7969 16.7031C37.8177 15.8385 40.0052 15.4062 42.3594 15.4062C44.6719 15.4062 46.3542 15.9115 47.4062 16.9219C48.4583 17.9219 48.9844 19.5469 48.9844 21.7969V33H45.9531C45.9427 32.9583 45.8281 32.6094 45.6094 31.9531C45.3906 31.2969 45.2812 30.9479 45.2812 30.9062C44.4271 31.7396 43.5885 32.3542 42.7656 32.75C41.9531 33.1354 40.9635 33.3281 39.7969 33.3281ZM40.9062 30.4219C41.8542 30.4219 42.6771 30.1979 43.375 29.75C44.0833 29.2917 44.5885 28.7396 44.8906 28.0938V24.7812C44.8594 24.7812 44.5833 24.8021 44.0625 24.8438C43.5521 24.8854 43.276 24.9062 43.2344 24.9062C41.5781 25.0521 40.3646 25.3646 39.5938 25.8438C38.8229 26.3229 38.4375 27.0938 38.4375 28.1562C38.4375 28.8854 38.651 29.4479 39.0781 29.8438C39.5052 30.2292 40.1146 30.4219 40.9062 30.4219ZM59.5 33.3281C57.2604 33.3281 55.5 32.5052 54.2188 30.8594C52.9375 29.2135 52.2969 27.0156 52.2969 24.2656C52.2969 21.599 52.9323 19.4583 54.2031 17.8438C55.4844 16.2188 57.2448 15.4062 59.4844 15.4062C61.9219 15.4062 63.6458 16.2708 64.6562 18C64.5521 16.9792 64.5 15.9948 64.5 15.0469V9.5L68.5938 9.23438V33H65.0469L64.5938 30.6562C64.4167 30.9375 64.25 31.1823 64.0938 31.3906C63.9479 31.5885 63.7292 31.8229 63.4375 32.0938C63.1458 32.3542 62.8281 32.5677 62.4844 32.7344C62.151 32.8906 61.724 33.026 61.2031 33.1406C60.6927 33.2656 60.125 33.3281 59.5 33.3281ZM60.4688 30.2188C63.2188 30.2188 64.6146 28.349 64.6562 24.6094C64.6562 22.4948 64.3021 20.9531 63.5938 19.9844C62.8854 19.0156 61.8281 18.5312 60.4219 18.5312C59.1927 18.5312 58.2083 19.026 57.4688 20.0156C56.7396 20.9948 56.375 22.4427 56.375 24.3594C56.375 26.2656 56.7396 27.7188 57.4688 28.7188C58.2083 29.7188 59.2083 30.2188 60.4688 30.2188ZM79 33.3281C76.7604 33.3281 75 32.5052 73.7188 30.8594C72.4375 29.2135 71.7969 27.0156 71.7969 24.2656C71.7969 21.599 72.4323 19.4583 73.7031 17.8438C74.9844 16.2188 76.7448 15.4062 78.9844 15.4062C81.4219 15.4062 83.1458 16.2708 84.1562 18C84.0521 16.9792 84 15.9948 84 15.0469V9.5L88.0938 9.23438V33H84.5469L84.0938 30.6562C83.9167 30.9375 83.75 31.1823 83.5938 31.3906C83.4479 31.5885 83.2292 31.8229 82.9375 32.0938C82.6458 32.3542 82.3281 32.5677 81.9844 32.7344C81.651 32.8906 81.224 33.026 80.7031 33.1406C80.1927 33.2656 79.625 33.3281 79 33.3281ZM79.9688 30.2188C82.7188 30.2188 84.1146 28.349 84.1562 24.6094C84.1562 22.4948 83.8021 20.9531 83.0938 19.9844C82.3854 19.0156 81.3281 18.5312 79.9219 18.5312C78.6927 18.5312 77.7083 19.026 76.9688 20.0156C76.2396 20.9948 75.875 22.4427 75.875 24.3594C75.875 26.2656 76.2396 27.7188 76.9688 28.7188C77.7083 29.7188 78.7083 30.2188 79.9688 30.2188ZM92.3906 33V15.8281H96.4844V33H92.3906ZM92.3906 13.3281V9.82812H96.5V13.3281H92.3906ZM100.766 33V15.8281H104.062L104.516 18C106.266 16.2708 108.208 15.4062 110.344 15.4062C112.344 15.4062 113.839 15.9844 114.828 17.1406C115.828 18.2865 116.328 19.9531 116.328 22.1406V33H112.219V22.6406C112.208 21.2552 111.984 20.2188 111.547 19.5312C111.109 18.8438 110.323 18.5 109.188 18.5C108.302 18.5 107.49 18.7292 106.75 19.1875C106.021 19.6354 105.49 20.2031 105.156 20.8906C104.958 21.7031 104.859 22.9531 104.859 24.6406V33H100.766Z" fill="white"/>
<path d="M1 51.2526C28.766 31.8991 61.5476 52.4592 91.3695 50.7356C101.265 50.0954 111.454 47.6085 119 40C115.948 44.6843 111.786 48.3777 106.958 50.6863C72.4597 67.9223 35.7245 36.4051 1.04518 51.2526H1Z" fill="#24A5C0"/>
</svg>
